<svg width="14" height="14" viewBox="0 0 14 14" fill="none" xmlns="http://www.w3.org/2000/svg">
<g id="24 / security / key">
<path id="icon" fill-rule="evenodd" clip-rule="evenodd" d="M5.23472 5.57207C5.23472 3.46228 6.94504 1.75195 9.05484 1.75195C11.1646 1.75195 12.875 3.46228 12.875 5.57207C12.875 7.68187 11.1646 9.3922 9.05484 9.3922H7.96338V10.4837H6.87191V11.5751H5.78045V12.6666H1.96033V9.71188L5.31549 6.35672C5.26198 6.1006 5.23472 5.83801 5.23472 5.57207ZM6.87199 8.30099H9.05491C10.5619 8.30099 11.7836 7.07933 11.7836 5.57233C11.7836 4.06534 10.5619 2.84368 9.05491 2.84368C7.54792 2.84368 6.32626 4.06534 6.32626 5.57233C6.32626 5.84445 6.36592 6.11063 6.44309 6.36521L6.53794 6.67816L3.05187 10.1642V11.5754H4.68906V10.4839H5.78052V9.39246H6.87199V8.30099ZM7.9634 5.57249C7.9634 6.17528 8.45207 6.66395 9.05487 6.66395C9.65767 6.66395 10.1463 6.17528 10.1463 5.57249C10.1463 4.96969 9.65767 4.48102 9.05487 4.48102C8.45207 4.48102 7.9634 4.96969 7.9634 5.57249Z" fill="#C6C6C6"/>
</g>
</svg>
