<svg width="15" height="18" viewBox="0 0 15 18" fill="none" xmlns="http://www.w3.org/2000/svg">
<path d="M15 8.18243V6.07565C15 5.75204 14.7376 5.48499 14.4141 5.48499C14.2016 5.48499 14.016 5.60689 13.9133 5.76316H3.7894L1.10585 0.611059C0.956435 0.324027 0.602572 0.214772 0.315574 0.364187C0.0285087 0.513568 -0.0830791 0.868512 0.0662681 1.15561L2.69539 6.20894V8.18243C2.69539 10.5595 4.04215 12.6269 6.01051 13.6584L4.18089 16.3961C4.00108 16.6651 4.07342 17.029 4.34244 17.2088C4.44246 17.2757 4.55561 17.3077 4.66746 17.3077C4.85656 17.3077 5.04218 17.2163 5.15516 17.0473L5.96927 15.8292L8.28127 16.5425V16.7006C8.28127 17.0242 8.54363 17.2865 8.8672 17.2865C9.19081 17.2865 9.45313 17.0241 9.45313 16.7006V16.5425L11.7651 15.8292L12.5792 17.0473C12.6922 17.2163 12.8778 17.3077 13.0669 17.3077C13.1788 17.3077 13.292 17.2757 13.392 17.2088C13.661 17.029 13.7333 16.6651 13.5535 16.3961L11.7157 13.6462C13.6669 12.6107 15 10.5502 15 8.18243ZM3.86732 6.93505H13.8282V7.44286H3.86732V6.93505ZM8.28134 15.3161L6.6488 14.8124L7.11989 14.1075C7.49363 14.2176 7.88201 14.293 8.28134 14.33V15.3161ZM9.4532 15.3161V14.3277C9.85101 14.289 10.2377 14.212 10.6099 14.1004L11.0857 14.8124L9.4532 15.3161ZM8.8575 13.185H8.85263C6.25207 13.185 4.11061 11.1928 3.88699 8.61472H13.8086C13.5856 11.1928 11.4504 13.185 8.8575 13.185Z" fill="white"/>
</svg>
